<?xml version="1.0" standalone="no"?>
<!DOCTYPE svg PUBLIC "-//W3C//DTD SVG 20010904//EN"
 "http://www.w3.org/TR/2001/REC-SVG-20010904/DTD/svg10.dtd">
<svg version="1.0" xmlns="http://www.w3.org/2000/svg"
 width="512.000000pt" height="512.000000pt" viewBox="0 0 512.000000 512.000000"
 preserveAspectRatio="xMidYMid meet">
<metadata>
Created by potrace 1.14, written by Peter Selinger 2001-2017
</metadata>
<g transform="translate(0.000000,512.000000) scale(0.100000,-0.100000)"
fill="#000000" stroke="none">
<path d="M3355 4644 c-106 -28 -196 -93 -260 -190 -64 -96 -88 -218 -65 -330
20 -100 53 -157 135 -239 88 -87 199 -127 334 -120 87 4 141 21 214 69 135 86
209 233 203 400 -11 283 -283 482 -561 410z m173 -299 c111 -45 121 -199 17
-261 -49 -28 -93 -31 -138 -8 -111 58 -113 207 -4 266 40 22 76 22 125 3z"/>
<path d="M4592 4034 c-69 -41 -90 -119 -53 -193 24 -46 53 -66 109 -76 118
-20 210 103 156 208 -45 86 -130 110 -212 61z"/>
<path d="M2260 3736 c-41 -12 -98 -35 -127 -50 -188 -103 -317 -319 -309 -519
3 -75 21 -106 79 -137 59 -32 123 -22 171 25 34 33 37 42 51 145 24 190 232
310 409 236 233 -97 244 -432 18 -543 l-57 -28 -1045 -5 c-1023 -5 -1046 -5
-1078 -25 -40 -23 -72 -81 -72 -126 0 -18 11 -51 25 -74 47 -81 -35 -75 1132
-74 987 0 1042 1 1111 19 108 28 187 75 273 160 85 85 138 179 164 290 19 86
13 226 -14 310 -97 304 -429 484 -731 396z"/>
<path d="M4260 3453 c-354 -61 -610 -338 -636 -689 -6 -73 -4 -86 17 -123 28
-50 56 -70 112 -77 87 -12 167 60 167 150 0 141 81 289 202 368 88 57 141 73
248 73 107 0 160 -16 248 -73 236 -154 269 -486 67 -687 -65 -65 -137 -105
-223 -124 -39 -8 -638 -11 -2200 -11 l-2147 0 -39 -23 c-55 -31 -79 -79 -71
-141 8 -61 28 -92 76 -117 37 -19 79 -19 2199 -19 1937 0 2169 2 2238 16 280
58 505 271 578 546 23 90 27 256 8 343 -44 192 -155 356 -316 466 -120 82
-238 120 -388 123 -63 2 -126 1 -140 -1z"/>
<path d="M995 1648 c-79 -29 -117 -126 -79 -201 19 -37 49 -65 82 -78 13 -5
480 -9 1050 -10 992 0 1029 -1 1078 -20 70 -27 128 -79 161 -146 36 -75 39
-183 6 -255 -70 -154 -257 -219 -408 -143 -96 49 -165 159 -165 261 0 113
-121 188 -220 136 -43 -23 -80 -91 -80 -147 1 -203 144 -428 330 -519 390
-190 838 67 867 499 11 172 -49 328 -176 455 -86 86 -163 131 -273 160 -69 18
-123 19 -1108 19 -714 0 -1044 -4 -1065 -11z"/>
<path d="M4536 1639 c-202 -68 -322 -242 -311 -453 8 -167 102 -309 250 -380
74 -35 104 -41 210 -40 125 1 203 34 295 124 87 86 124 163 136 285 19 194
-98 380 -287 456 -77 31 -213 34 -293 8z m194 -295 c47 -19 90 -82 90 -133 0
-155 -220 -205 -282 -64 -34 78 -10 156 61 193 45 24 79 25 131 4z"/>
<path d="M4025 753 c-64 -17 -111 -90 -101 -160 7 -56 27 -84 77 -112 123 -69
267 67 203 192 -36 70 -102 99 -179 80z"/>
</g>
</svg>
